<svg width="214" height="30" viewBox="0 0 214 30" fill="none" xmlns="http://www.w3.org/2000/svg">
<g clip-path="url(#clip0)">
<path fill-rule="evenodd" clip-rule="evenodd" d="M61.1365 8H63.4391L60.7496 22H56.2733L54.1733 9.73154L52.0733 22H47.597L44.9075 8H47.2101L49.8444 21.7973L52.2207 8H56.1259L58.5022 21.7973L61.1365 8ZM73.2942 15.8105V15.7737C73.2942 13.5632 72.2257 11.8684 70.0521 11.8684C68.431 11.8684 67.4916 12.9 67.0494 14.0789V8H64.8574V22H67.0679V16.2157C67.0679 14.3 67.8231 13.4526 69.0758 13.4526C70.31 13.4526 71.0837 14.2816 71.0837 16.1789V16.2157V22H73.2942V15.8105ZM75.4677 10.5237V8H77.8072V10.5237H75.4677ZM75.5414 22V12.0711H77.7519V22H75.5414ZM85.47 22V20.3605H83.8305C83.2963 20.3605 83.0384 20.1763 83.0384 19.6789V13.7106H85.4331V12.0711H83.0384V9.73157H80.8279V12.0711H79.0779V13.7106H80.8279V19.6974C80.8279 21.2448 81.8042 22 83.4253 22H85.47ZM95.6386 17.6894H88.5464C88.7122 19.6605 89.6701 20.6553 91.0333 20.6553C92.2122 20.6553 92.8754 20.1026 93.2438 19.071H95.4543C94.8833 21.1894 93.2438 22.221 91.0148 22.221C88.1044 22.221 86.3175 20.0473 86.3175 17.0447C86.3175 14.0052 88.1411 11.8684 91.0148 11.8684C93.8148 11.8684 95.6753 13.8763 95.6753 16.971C95.6753 17.1736 95.6569 17.4317 95.6386 17.6894ZM88.5833 16.1237H93.4096C93.2991 14.5026 92.3964 13.4342 91.0148 13.4342C89.707 13.4342 88.8043 14.3184 88.5833 16.1237ZM105.825 15.8105V15.7737C105.825 13.5632 104.757 11.8684 102.583 11.8684C100.962 11.8684 100.023 12.9 99.5806 14.0789V8H97.3885V22H99.5991V16.2157C99.5991 14.3 100.354 13.4526 101.607 13.4526C102.841 13.4526 103.615 14.2816 103.615 16.1789V16.2157V22H105.825V15.8105ZM116.786 17.6894H109.693C109.859 19.6605 110.817 20.6553 112.18 20.6553C113.359 20.6553 114.022 20.1026 114.391 19.071H116.601C116.03 21.1894 114.391 22.221 112.162 22.221C109.251 22.221 107.465 20.0473 107.465 17.0447C107.465 14.0052 109.288 11.8684 112.162 11.8684C114.962 11.8684 116.822 13.8763 116.822 16.971C116.822 17.1737 116.804 17.4316 116.786 17.6894ZM109.73 16.1237H114.557C114.446 14.5026 113.543 13.4342 112.162 13.4342C110.854 13.4342 109.951 14.3184 109.73 16.1237ZM126.677 15.7V15.6631C126.677 13.7473 125.535 11.8684 122.514 11.8684C120.193 11.8684 118.536 13.1026 118.296 15.0368H120.543C120.672 14.1894 121.335 13.4342 122.514 13.4342C123.841 13.4342 124.467 14.3921 124.467 15.571V15.6079V15.7552L121.925 16.0315C120.249 16.2157 118.001 16.6394 118.001 18.9973C118.001 20.8763 119.438 22.221 121.243 22.221C123.067 22.221 123.878 21.3368 124.485 20.0105V22H126.677V15.7ZM124.467 17.1737V17.7815C124.467 19.4394 123.657 20.821 122.091 20.821C121.096 20.821 120.249 20.1579 120.249 18.9973C120.249 17.671 121.557 17.4868 122.754 17.3579L124.467 17.1737ZM135.648 8H137.841V22H135.648V19.9184C135.096 21.2816 133.806 22.2211 132.351 22.2211C130.012 22.2211 128.335 20.0658 128.335 17.0447C128.335 14.0237 130.012 11.8684 132.351 11.8684C134.101 11.8684 135.206 13.1026 135.648 14.429V8ZM135.722 17.0447C135.722 14.8526 134.801 13.4342 133.162 13.4342C131.485 13.4342 130.583 14.8526 130.583 17.0447C130.583 19.2184 131.485 20.6553 133.162 20.6553C134.801 20.6553 135.722 19.2184 135.722 17.0447ZM144.932 8V22H147.198V8H144.932ZM157.901 15.7736V15.8105V22H155.69V16.2157V16.1789C155.69 14.2816 154.916 13.4526 153.682 13.4526C152.43 13.4526 151.674 14.3 151.674 16.2157V22H149.464V12.071H151.656V14.0789C152.098 12.9 153.037 11.8684 154.659 11.8684C156.832 11.8684 157.901 13.5631 157.901 15.7736ZM161.658 19.0526H159.411C159.724 21.1526 161.4 22.221 163.63 22.221C166.08 22.221 167.866 21.0605 167.866 19.1078C167.866 17.5421 166.982 16.621 164.993 16.1789L163.501 15.8473C162.358 15.5894 161.787 15.3684 161.787 14.6316C161.787 13.8578 162.653 13.4342 163.574 13.4342C164.44 13.4342 165.214 13.8578 165.453 14.6131H167.682C167.258 12.771 165.582 11.8684 163.574 11.8684C161.419 11.8684 159.632 13.0289 159.632 14.8342C159.632 16.3447 160.701 17.1552 162.432 17.5421L163.924 17.8736C165.14 18.15 165.73 18.4631 165.73 19.3289C165.73 20.1394 165.011 20.6553 163.703 20.6553C162.801 20.6553 161.88 20.3052 161.658 19.0526ZM174.811 20.3605V22H172.766C171.145 22 170.169 21.2448 170.169 19.6974V13.7106H168.419V12.0711H170.169V9.73157H172.379V12.0711H174.774V13.7106H172.379V19.6789C172.379 20.1763 172.637 20.3605 173.172 20.3605H174.811ZM176.248 8V10.5237H178.587V8H176.248ZM176.322 12.0711V22H178.532V12.0711H176.322ZM186.25 20.3605V22H184.206C182.584 22 181.608 21.2448 181.608 19.6974V13.7106H179.858V12.0711H181.608V9.73157H183.819V12.0711H186.213V13.7106H183.819V19.6789C183.819 20.1763 184.077 20.3605 184.611 20.3605H186.25ZM195.995 12.071H193.784V17.8552C193.784 19.7526 193.084 20.6184 191.832 20.6184C190.598 20.6184 189.861 19.771 189.861 17.8921V17.8552V12.071H187.65V18.2605V18.2974C187.65 20.5079 188.682 22.221 190.855 22.221C192.458 22.221 193.379 21.1894 193.803 20.0473V22H195.995V12.071ZM203.713 20.3605V22H201.669C200.048 22 199.071 21.2448 199.071 19.6974V13.7106H197.321V12.0711H199.071V9.73157H201.282V12.0711H203.677V13.7106H201.282V19.6789C201.282 20.1763 201.54 20.3605 202.074 20.3605H203.713ZM206.79 17.6894H213.882C213.9 17.4316 213.919 17.1737 213.919 16.971C213.919 13.8763 212.058 11.8684 209.258 11.8684C206.384 11.8684 204.561 14.0052 204.561 17.0447C204.561 20.0473 206.348 22.221 209.258 22.221C211.487 22.221 213.127 21.1894 213.698 19.071H211.487C211.119 20.1026 210.456 20.6553 209.277 20.6553C207.913 20.6553 206.956 19.6605 206.79 17.6894ZM211.653 16.1237H206.827C207.048 14.3184 207.95 13.4342 209.258 13.4342C210.64 13.4342 211.542 14.5026 211.653 16.1237Z" fill="white"/>
<path d="M8.53276 12.3758L15.3849 24.244L12.062 30H13.5898C14.5353 30 15.409 29.4955 15.8818 28.6766L16.9129 26.8906L17.9441 28.6767C18.4169 29.4956 19.2905 30 20.2361 30H21.764L11.5887 12.3758H8.53276Z" fill="white"/>
<path d="M21.4727 11.0516L23.0006 8.40492L9.29683 8.40621L5.97146 2.64651H27.8528L27.0888 1.32326C26.6161 0.504422 25.7424 0 24.7969 0H9.02739C8.08189 0 7.2082 0.504422 6.73545 1.32326L5.20748 3.96976C4.73473 4.7886 4.73473 5.79744 5.20748 6.61628L6.24107 8.40649L4.17354 8.40669C3.22812 8.40678 2.35455 8.91119 1.88184 9.72994L0.354565 12.3753C-0.118188 13.1941 -0.118188 14.2029 0.354565 15.0218L8.23827 28.6767C8.71102 29.4956 9.58471 30 10.5302 30H12.0582L1.1194 11.0535L21.4727 11.0516Z" fill="white"/>
<path d="M33.4687 12.3735L31.9411 9.72756C31.4683 8.90865 30.5945 8.40421 29.6489 8.4043L27.5846 8.40449L28.6169 6.61632C29.0896 5.7975 29.0896 4.78871 28.6169 3.96991L27.8528 2.64651L17.6767 20.2739L19.2047 22.9206L26.0568 11.0511L32.7045 11.0505L21.764 30H23.292C24.2375 30 25.1112 29.4956 25.5839 28.6767L33.4687 15.02C33.9414 14.2011 33.9414 13.1923 33.4687 12.3735Z" fill="white"/>
</g>
<defs>
<clipPath id="clip0">
<rect width="213.919" height="30" fill="white"/>
</clipPath>
</defs>
</svg>
